<mxfile host="app.diagrams.net" modified="2023-04-04T12:04:34.577Z" agent="Mozilla/5.0 (X11; Ubuntu; Linux x86_64; rv:109.0) Gecko/20100101 Firefox/111.0" version="21.1.4" etag="ZfZn0v1axefMPqXh63_A" type="github">
  <diagram name="Page-1" id="_dUUb8UXCMTl2kKZ3o2k">
    <mxGraphModel>
      <root>
        <mxCell id="0" />
        <mxCell id="1" parent="0" />
      </root>
    </mxGraphModel>
  </diagram>
</mxfile>
